<?xml version="1.0" standalone="no"?>
<!DOCTYPE svg PUBLIC "-//W3C//DTD SVG 20010904//EN"
 "http://www.w3.org/TR/2001/REC-SVG-20010904/DTD/svg10.dtd">
<svg version="1.0" xmlns="http://www.w3.org/2000/svg"
 width="512.000000pt" height="512.000000pt" viewBox="0 0 512.000000 512.000000"
 preserveAspectRatio="xMidYMid meet">
<metadata>
Created by potrace 1.14, written by Peter Selinger 2001-2017
</metadata>
<g transform="translate(0.000000,512.000000) scale(0.100000,-0.100000)"
fill="#000000" stroke="none">
<path d="M0 2560 l0 -2560 2560 0 2560 0 0 2560 0 2560 -2560 0 -2560 0 0
-2560z m3131 1608 c-10 -18 -128 -247 -261 -508 -134 -261 -244 -477 -246
-479 -2 -2 -32 -6 -68 -8 -36 -3 -66 -8 -66 -12 0 -3 134 -70 298 -148 163
-79 298 -148 300 -155 1 -7 -152 -182 -339 -388 -188 -206 -396 -435 -462
-508 -66 -72 -122 -130 -124 -128 -3 2 401 798 413 815 2 2 40 6 85 10 l82 6
-189 93 c-104 52 -255 126 -336 165 -82 38 -148 73 -148 76 0 4 88 105 197
226 519 580 772 864 818 916 57 65 73 74 46 27z m-391 -259 c0 -38 -9 -51
-180 -243 -140 -158 -188 -205 -217 -215 -103 -37 -229 -142 -291 -244 -174
-286 -70 -676 220 -832 29 -15 55 -29 57 -31 2 -2 -193 -398 -204 -411 -4 -6
-85 31 -85 38 0 4 16 51 35 104 l34 95 -52 39 c-29 21 -68 55 -86 75 -19 20
-40 36 -47 36 -7 0 -51 -23 -99 -51 -60 -35 -90 -48 -97 -41 -20 20 -167 286
-162 293 2 4 37 26 77 48 113 63 109 58 93 113 -8 26 -18 78 -22 116 l-6 70
-88 16 c-48 9 -95 16 -103 16 -9 0 -18 4 -21 9 -6 9 49 330 58 338 3 3 46 -2
95 -11 49 -9 96 -16 105 -16 9 0 29 27 50 68 19 37 46 82 60 101 l25 33 -70
83 c-38 45 -69 85 -69 88 0 3 53 49 118 103 64 53 124 103 133 111 15 13 36
-7 140 -139 15 -20 17 -20 50 -2 19 10 70 30 114 44 l80 27 0 107 0 106 178 0
177 0 0 -41z m502 -201 c64 -54 120 -103 123 -108 3 -6 -25 -47 -63 -92 l-69
-82 38 -57 c22 -31 48 -77 59 -103 12 -25 26 -46 33 -46 7 1 56 9 109 19 l97
17 10 -50 c40 -203 52 -289 40 -296 -6 -4 -35 -11 -63 -15 -28 -3 -72 -11 -98
-16 -47 -10 -48 -12 -48 -47 0 -36 -22 -151 -35 -183 -4 -12 17 -28 90 -69 62
-34 94 -57 91 -66 -7 -19 -156 -278 -165 -287 -5 -5 -50 17 -101 48 l-92 56
-63 -60 c-35 -32 -77 -67 -94 -77 l-29 -17 34 -96 c19 -53 34 -101 34 -106 0
-9 -295 -125 -317 -125 -5 0 -24 44 -44 98 l-36 97 -106 5 -106 5 123 135
c106 116 130 137 173 152 27 10 77 36 112 58 296 192 364 582 150 865 -38 51
-149 146 -182 158 -14 5 98 225 123 244 9 7 43 44 75 82 34 42 62 68 69 64 6
-4 64 -51 128 -105z m-1181 -2169 c46 -16 97 -55 120 -93 10 -17 19 -34 19
-38 0 -5 -27 -8 -60 -8 -50 0 -63 4 -85 26 -23 23 -32 26 -73 21 -68 -7 -102
-48 -102 -122 0 -74 34 -115 102 -122 41 -5 50 -2 73 21 22 22 35 26 85 26 33
0 60 -2 60 -5 0 -14 -30 -62 -52 -81 -145 -132 -379 -31 -378 163 0 46 24 111
52 143 61 69 156 97 239 69z m533 -13 c49 -20 76 -60 76 -113 0 -52 -23 -96
-59 -114 -14 -8 -28 -14 -30 -16 -3 -2 44 -83 87 -150 14 -23 14 -23 -49 -23
l-64 0 -44 80 c-25 44 -48 80 -53 80 -4 0 -8 -36 -8 -80 l0 -80 -55 0 -55 0 0
215 0 215 110 0 c71 0 122 -5 144 -14z m420 -134 c32 -78 61 -140 64 -137 3 3
31 67 63 143 l57 137 61 3 61 3 0 -216 0 -215 -50 0 -50 0 0 110 c0 61 -3 110
-7 110 -5 0 -28 -50 -51 -110 l-44 -110 -42 0 -42 0 -45 111 -44 110 -3 -110
-3 -111 -54 0 -55 0 0 215 0 216 62 -3 63 -3 59 -143z"/>
<path d="M2450 1410 l0 -50 50 0 c44 0 52 3 62 25 9 19 8 29 -6 50 -14 21 -24
25 -61 25 l-45 0 0 -50z"/>
</g>
</svg>
