<svg xmlns="http://www.w3.org/2000/svg" xmlns:xlink="http://www.w3.org/1999/xlink" version="1.1" width="1000" height="1000" viewBox="0 0 1000 1000" xml:space="preserve">
<desc>Created with Fabric.js 3.5.0</desc>
<defs>
</defs>
<rect x="0" y="0" width="100%" height="100%" fill="rgba(255,255,255,0)"/>
<g transform="matrix(8.4617 0 0 8.4617 500.0001 500.0001)" id="483460">
<g style="" vector-effect="non-scaling-stroke">
		<g transform="matrix(1 0 0 1 1.182 9.8785)" id="Rectangle_1">
<rect style="stroke: none; stroke-width: 1; stroke-dasharray: none; stroke-linecap: butt; stroke-dashoffset: 0; stroke-linejoin: miter; stroke-miterlimit: 4; is-custom-font: none; font-file-url: none; fill: rgb(26,26,26); fill-rule: nonzero; opacity: 1;" x="-28.5015" y="-31.6025" rx="0" ry="0" width="57.003" height="63.205"/>
</g>
		<g transform="matrix(1 0 0 1 1.1815 9.8785)" id="Rectangle_2">
<rect style="stroke: none; stroke-width: 1; stroke-dasharray: none; stroke-linecap: butt; stroke-dashoffset: 0; stroke-linejoin: miter; stroke-miterlimit: 4; is-custom-font: none; font-file-url: none; fill: rgb(28,11,16); fill-rule: nonzero; opacity: 1;" x="-14.565" y="-31.6025" rx="0" ry="0" width="29.13" height="63.205"/>
</g>
		<g transform="matrix(1 0 0 1 -21.978 8.888)" id="Rectangle_3">
<rect style="stroke: none; stroke-width: 1; stroke-dasharray: none; stroke-linecap: butt; stroke-dashoffset: 0; stroke-linejoin: miter; stroke-miterlimit: 4; is-custom-font: none; font-file-url: none; fill: rgb(26,26,26); fill-rule: nonzero; opacity: 1;" x="-5.3425" y="-34.274" rx="0" ry="0" width="10.685" height="68.548"/>
</g>
		<g transform="matrix(1 0 0 1 -0.002 23.242)" id="Path_1">
<path style="stroke: none; stroke-width: 1; stroke-dasharray: none; stroke-linecap: butt; stroke-dashoffset: 0; stroke-linejoin: miter; stroke-miterlimit: 4; is-custom-font: none; font-file-url: none; fill: rgb(255,212,212); fill-rule: nonzero; opacity: 1;" transform=" translate(-34.7765, -90.304)" d="M 42.49 82.587 H 26.871 s 0.395 11.961 -1.518 15.434 H 44.2 c -1.912 -3.473 -1.713 -15.434 -1.713 -15.434" stroke-linecap="round"/>
</g>
		<g transform="matrix(1 0 0 1 -0.0325 20.4086)" id="Path_2">
<path style="stroke: none; stroke-width: 1; stroke-dasharray: none; stroke-linecap: butt; stroke-dashoffset: 0; stroke-linejoin: miter; stroke-miterlimit: 4; is-custom-font: none; font-file-url: none; fill: rgb(246,186,186); fill-rule: nonzero; opacity: 1;" transform=" translate(-34.692, -87.4706)" d="M 26.729 89.937 c 2.909 1.372 5.842 2.684 9.175 2.366 a 18.9 18.9 0 0 0 6.751 -2.013 c -0.284 -3.924 -0.222 -7.7 -0.222 -7.7 H 26.815 s 0.116 3.556 -0.086 7.35" stroke-linecap="round"/>
</g>
		<g transform="matrix(1 0 0 1 0.0005 41.4815)" id="Path_3">
<path style="stroke: none; stroke-width: 1; stroke-dasharray: none; stroke-linecap: butt; stroke-dashoffset: 0; stroke-linejoin: miter; stroke-miterlimit: 4; is-custom-font: none; font-file-url: none; fill: rgb(255,212,212); fill-rule: nonzero; opacity: 1;" transform=" translate(-35.7799, -108.0225)" d="M 64.735 104.28 L 42.981 95.786 H 28.555 L 6.8 104.28 S -0.819 107.01 0.073 120.259 H 71.464 c 1.038 -14.063 -6.729 -15.98 -6.729 -15.98" stroke-linecap="round"/>
</g>
		<g transform="matrix(1 0 0 1 23.2661 -6.5242)" id="Path_4">
<path style="stroke: none; stroke-width: 1; stroke-dasharray: none; stroke-linecap: butt; stroke-dashoffset: 0; stroke-linejoin: miter; stroke-miterlimit: 4; is-custom-font: none; font-file-url: none; fill: rgb(255,212,212); fill-rule: nonzero; opacity: 1;" transform=" translate(-56.9486, -61.6488)" d="M 53.307 60.962 c -0.644 3.971 0.472 7.5 2.486 7.877 s 4.163 -2.526 4.8 -6.5 s -0.474 -7.5 -2.49 -7.88 s -4.161 2.529 -4.8 6.5" stroke-linecap="round"/>
</g>
		<g transform="matrix(1 0 0 1 23.9741 -8.0144)" id="Path_5">
<path style="stroke: none; stroke-width: 1; stroke-dasharray: none; stroke-linecap: butt; stroke-dashoffset: 0; stroke-linejoin: miter; stroke-miterlimit: 4; is-custom-font: none; font-file-url: none; fill: rgb(255,187,187); fill-rule: nonzero; opacity: 1;" transform=" translate(-57.5586, -60.1007)" d="M 55.63 59.83 s 0.03 -0.222 0.109 -0.586 a 7.269 7.269 0 0 1 0.485 -1.427 c 0.253 -0.531 0.659 -1.14 1.169 -1.173 a 1.026 1.026 0 0 1 0.388 0.053 c 0.022 0.016 0.157 0.07 0.2 0.1 a 1.379 1.379 0 0 1 0.142 0.118 a 2.041 2.041 0 0 1 0.486 0.866 a 5.188 5.188 0 0 1 0.237 1.128 a 5.575 5.575 0 0 1 0.012 1.137 c -0.061 0.4 -0.081 0.808 -0.154 1.154 s -0.131 0.687 -0.19 1 c -0.082 0.311 -0.146 0.6 -0.2 0.854 s -0.133 0.473 -0.18 0.654 c -0.1 0.363 -0.156 0.577 -0.156 0.577 s 0.1 -0.182 0.271 -0.515 c 0.077 -0.168 0.192 -0.363 0.29 -0.609 s 0.216 -0.517 0.334 -0.821 s 0.208 -0.663 0.316 -1.034 s 0.164 -0.753 0.242 -1.154 a 5.3 5.3 0 0 0 0.05 -1.362 a 6.006 6.006 0 0 0 -0.257 -1.344 a 2.8 2.8 0 0 0 -0.7 -1.164 a 1.518 1.518 0 0 0 -0.286 -0.207 a 1.836 1.836 0 0 0 -0.276 -0.113 a 1.545 1.545 0 0 0 -0.606 -0.028 a 1.572 1.572 0 0 0 -0.989 0.7 a 3.588 3.588 0 0 0 -0.478 1 a 6.36 6.36 0 0 0 -0.271 1.6 a 4.017 4.017 0 0 0 0.017 0.6" stroke-linecap="round"/>
</g>
		<g transform="matrix(1 0 0 1 22.7364 -5.7471)" id="Path_6">
<path style="stroke: none; stroke-width: 1; stroke-dasharray: none; stroke-linecap: butt; stroke-dashoffset: 0; stroke-linejoin: miter; stroke-miterlimit: 4; is-custom-font: none; font-file-url: none; fill: rgb(255,187,187); fill-rule: nonzero; opacity: 1;" transform=" translate(-56.3449, -62.2389)" d="M 55.653 59.7 s -0.186 -0.425 1.139 -0.523 c 0 0 1.481 0.272 0.611 2.249 a 6.454 6.454 0 0 0 -0.444 1.331 c -0.132 0.663 0.1 1.562 -0.252 2.153 c -0.458 0.758 -1.626 0.325 -1.694 -0.543 a 4.978 4.978 0 0 1 0.944 -2.277 a 1.777 1.777 0 0 0 -0.3 -2.39" stroke-linecap="round"/>
</g>
		<g transform="matrix(1 0 0 1 21.6873 -2.3535)" id="Path_7">
<path style="stroke: none; stroke-width: 1; stroke-dasharray: none; stroke-linecap: butt; stroke-dashoffset: 0; stroke-linejoin: miter; stroke-miterlimit: 4; is-custom-font: none; font-file-url: none; fill: rgb(255,187,187); fill-rule: nonzero; opacity: 1;" transform=" translate(-55.3107, -65.4385)" d="M 55.029 64.088 a 0.721 0.721 0 0 0 -0.1 0.108 a 1.276 1.276 0 0 0 -0.194 0.371 a 1.144 1.144 0 0 0 -0.069 0.281 a 1.045 1.045 0 0 0 -0.025 0.328 c 0.009 0.112 0.011 0.235 0.032 0.354 a 2.67 2.67 0 0 0 0.108 0.331 a 1.674 1.674 0 0 0 0.15 0.3 a 2.688 2.688 0 0 0 0.2 0.229 a 0.855 0.855 0 0 0 0.4 0.288 a 1.217 1.217 0 0 0 0.453 0.112 a 2.931 2.931 0 0 0 -0.208 -0.481 a 1.154 1.154 0 0 0 -0.11 -0.186 c -0.032 -0.072 -0.056 -0.154 -0.094 -0.22 a 1.582 1.582 0 0 0 -0.11 -0.208 a 1.091 1.091 0 0 1 -0.085 -0.222 a 2.33 2.33 0 0 1 -0.161 -0.432 a 2.034 2.034 0 0 1 -0.058 -0.22 c -0.009 -0.073 -0.043 -0.148 -0.048 -0.216 c -0.053 -0.272 -0.079 -0.518 -0.079 -0.518" stroke-linecap="round"/>
</g>
		<g transform="matrix(1 0 0 1 -22.3565 -6.5242)" id="Path_8">
<path style="stroke: none; stroke-width: 1; stroke-dasharray: none; stroke-linecap: butt; stroke-dashoffset: 0; stroke-linejoin: miter; stroke-miterlimit: 4; is-custom-font: none; font-file-url: none; fill: rgb(255,212,212); fill-rule: nonzero; opacity: 1;" transform=" translate(-13.058, -61.6488)" d="M 16.7 60.962 c 0.642 3.971 -0.472 7.5 -2.486 7.877 s -4.163 -2.526 -4.8 -6.5 s 0.474 -7.5 2.49 -7.88 s 4.161 2.529 4.8 6.5" stroke-linecap="round"/>
</g>
		<g transform="matrix(1 0 0 1 -23.0626 -8.0144)" id="Path_9">
<path style="stroke: none; stroke-width: 1; stroke-dasharray: none; stroke-linecap: butt; stroke-dashoffset: 0; stroke-linejoin: miter; stroke-miterlimit: 4; is-custom-font: none; font-file-url: none; fill: rgb(255,187,187); fill-rule: nonzero; opacity: 1;" transform=" translate(-12.308, -60.1007)" d="M 14.237 59.83 s -0.03 -0.222 -0.109 -0.586 a 7.269 7.269 0 0 0 -0.485 -1.427 c -0.253 -0.531 -0.659 -1.14 -1.17 -1.173 a 1.035 1.035 0 0 0 -0.388 0.053 c -0.021 0.016 -0.156 0.07 -0.2 0.1 a 1.5 1.5 0 0 0 -0.141 0.118 a 2.052 2.052 0 0 0 -0.486 0.866 a 5.127 5.127 0 0 0 -0.237 1.128 a 5.5 5.5 0 0 0 -0.012 1.137 c 0.062 0.4 0.081 0.808 0.153 1.154 s 0.132 0.687 0.191 1 c 0.082 0.311 0.144 0.6 0.2 0.854 s 0.133 0.473 0.18 0.654 c 0.1 0.363 0.156 0.577 0.156 0.577 s -0.1 -0.182 -0.272 -0.515 c -0.077 -0.168 -0.191 -0.363 -0.29 -0.609 s -0.216 -0.517 -0.333 -0.821 s -0.209 -0.663 -0.316 -1.034 s -0.163 -0.753 -0.243 -1.154 a 5.3 5.3 0 0 1 -0.049 -1.362 a 5.948 5.948 0 0 1 0.257 -1.344 a 2.8 2.8 0 0 1 0.7 -1.164 a 1.553 1.553 0 0 1 0.286 -0.207 a 1.821 1.821 0 0 1 0.275 -0.113 a 1.551 1.551 0 0 1 0.607 -0.028 a 1.572 1.572 0 0 1 0.989 0.7 a 3.588 3.588 0 0 1 0.478 1 a 6.3 6.3 0 0 1 0.27 1.6 a 3.953 3.953 0 0 1 -0.016 0.6" stroke-linecap="round"/>
</g>
		<g transform="matrix(1 0 0 1 -21.826 -5.7471)" id="Path_10">
<path style="stroke: none; stroke-width: 1; stroke-dasharray: none; stroke-linecap: butt; stroke-dashoffset: 0; stroke-linejoin: miter; stroke-miterlimit: 4; is-custom-font: none; font-file-url: none; fill: rgb(255,187,187); fill-rule: nonzero; opacity: 1;" transform=" translate(-13.4745, -62.2389)" d="M 14.167 59.7 s 0.186 -0.425 -1.14 -0.523 c 0 0 -1.48 0.272 -0.61 2.249 a 6.39 6.39 0 0 1 0.443 1.331 c 0.133 0.663 -0.1 1.562 0.252 2.153 c 0.459 0.758 1.627 0.325 1.694 -0.543 a 4.965 4.965 0 0 0 -0.943 -2.277 a 1.777 1.777 0 0 1 0.3 -2.39" stroke-linecap="round"/>
</g>
		<g transform="matrix(1 0 0 1 -20.7765 -2.3535)" id="Path_11">
<path style="stroke: none; stroke-width: 1; stroke-dasharray: none; stroke-linecap: butt; stroke-dashoffset: 0; stroke-linejoin: miter; stroke-miterlimit: 4; is-custom-font: none; font-file-url: none; fill: rgb(255,187,187); fill-rule: nonzero; opacity: 1;" transform=" translate(-14.459, -65.4385)" d="M 14.74 64.088 a 0.662 0.662 0 0 1 0.1 0.108 a 1.506 1.506 0 0 1 0.265 0.652 a 1.045 1.045 0 0 1 0.023 0.328 c -0.008 0.112 -0.01 0.235 -0.031 0.354 a 2.668 2.668 0 0 1 -0.108 0.331 a 1.674 1.674 0 0 1 -0.15 0.3 a 2.521 2.521 0 0 1 -0.2 0.229 a 0.853 0.853 0 0 1 -0.4 0.288 a 1.221 1.221 0 0 1 -0.453 0.112 a 2.978 2.978 0 0 1 0.207 -0.481 a 1.24 1.24 0 0 1 0.111 -0.186 c 0.032 -0.072 0.056 -0.154 0.094 -0.22 a 1.582 1.582 0 0 1 0.11 -0.208 a 1.091 1.091 0 0 0 0.085 -0.222 a 2.406 2.406 0 0 0 0.161 -0.432 a 1.812 1.812 0 0 0 0.057 -0.22 c 0.01 -0.073 0.043 -0.148 0.049 -0.216 c 0.053 -0.272 0.079 -0.518 0.078 -0.518" stroke-linecap="round"/>
</g>
		<g transform="matrix(1 0 0 1 0.0112 -13.6955)" id="Path_12">
<path style="stroke: none; stroke-width: 1; stroke-dasharray: none; stroke-linecap: butt; stroke-dashoffset: 0; stroke-linejoin: miter; stroke-miterlimit: 4; is-custom-font: none; font-file-url: none; fill: rgb(255,212,212); fill-rule: nonzero; opacity: 1;" transform=" translate(-35.2807, -55.7555)" d="M 55.522 29.982 s -6.852 -7.507 -20.339 -7.921 c -13.475 0.707 -20.3 8.472 -20.3 8.474 c -3.666 11.813 -1.319 25.662 0.239 37.647 c 1.152 8.85 7.1 15.043 14.607 19.353 a 13.936 13.936 0 0 0 6.182 1.915 a 13.921 13.921 0 0 0 6.14 -2.047 c 7.289 -4.942 12.868 -11.048 14.257 -20.042 a 133.148 133.148 0 0 0 1.206 -24.19 a 47.749 47.749 0 0 0 -1.989 -13.189" stroke-linecap="round"/>
</g>
		<g transform="matrix(1 0 0 1 -10.3785 -16.4218)" id="Path_13">
<path style="stroke: none; stroke-width: 1; stroke-dasharray: none; stroke-linecap: butt; stroke-dashoffset: 0; stroke-linejoin: miter; stroke-miterlimit: 4; is-custom-font: none; font-file-url: none; fill: rgb(26,26,26); fill-rule: nonzero; opacity: 1;" transform=" translate(-24.64, -51.9212)" d="M 29.071 53.047 a 14.5 14.5 0 0 0 -9.8 0.664 c 0.982 -5.319 10.191 -3.136 10.191 -3.136 s 0.608 0.143 0.542 1.1 c 0 0 -0.244 1.634 -0.931 1.376" stroke-linecap="round"/>
</g>
		<g transform="matrix(1 0 0 1 10.045 -16.4218)" id="Path_14">
<path style="stroke: none; stroke-width: 1; stroke-dasharray: none; stroke-linecap: butt; stroke-dashoffset: 0; stroke-linejoin: miter; stroke-miterlimit: 4; is-custom-font: none; font-file-url: none; fill: rgb(26,26,26); fill-rule: nonzero; opacity: 1;" transform=" translate(-44.3005, -51.9212)" d="M 39.541 53.047 S 45.02 51.424 50 53.711 c -0.981 -5.319 -10.853 -3.136 -10.853 -3.136 s -0.607 0.143 -0.541 1.1 c 0 0 0.243 1.634 0.931 1.376" stroke-linecap="round"/>
</g>
		<g transform="matrix(1 0 0 1 -10.1475 -10.36)" id="Path_15">
<path style="stroke: none; stroke-width: 1; stroke-dasharray: none; stroke-linecap: butt; stroke-dashoffset: 0; stroke-linejoin: miter; stroke-miterlimit: 4; is-custom-font: none; font-file-url: none; fill: rgb(35,18,8); fill-rule: nonzero; opacity: 1;" transform=" translate(-24.731, -57.791)" d="M 22.815 57.8 c 0.011 1.543 0.875 2.788 1.932 2.782 s 1.91 -1.262 1.9 -2.8 S 25.773 54.993 24.715 55 s -1.908 1.262 -1.9 2.8" stroke-linecap="round"/>
</g>
		<g transform="matrix(1 0 0 1 -11.7365 -11.237)" id="Path_16">
<path style="stroke: none; stroke-width: 1; stroke-dasharray: none; stroke-linecap: butt; stroke-dashoffset: 0; stroke-linejoin: miter; stroke-miterlimit: 4; is-custom-font: none; font-file-url: none; fill: rgb(255,255,255); fill-rule: nonzero; opacity: 1;" transform=" translate(-23.162, -56.872)" d="M 23.991 56.874 a 0.829 0.829 0 1 1 -0.828 -0.831 a 0.828 0.828 0 0 1 0.828 0.831" stroke-linecap="round"/>
</g>
		<g transform="matrix(1 0 0 1 10.1455 -10.3605)" id="Path_17">
<path style="stroke: none; stroke-width: 1; stroke-dasharray: none; stroke-linecap: butt; stroke-dashoffset: 0; stroke-linejoin: miter; stroke-miterlimit: 4; is-custom-font: none; font-file-url: none; fill: rgb(35,18,8); fill-rule: nonzero; opacity: 1;" transform=" translate(-44.254, -57.7905)" d="M 46.17 57.8 c -0.01 1.543 -0.875 2.788 -1.932 2.782 s -1.91 -1.262 -1.9 -2.8 s 0.873 -2.788 1.932 -2.783 s 1.907 1.262 1.9 2.8" stroke-linecap="round"/>
</g>
		<g transform="matrix(1 0 0 1 11.7355 -11.237)" id="Path_18">
<path style="stroke: none; stroke-width: 1; stroke-dasharray: none; stroke-linecap: butt; stroke-dashoffset: 0; stroke-linejoin: miter; stroke-miterlimit: 4; is-custom-font: none; font-file-url: none; fill: rgb(255,255,255); fill-rule: nonzero; opacity: 1;" transform=" translate(-45.742, -56.872)" d="M 44.913 56.874 a 0.829 0.829 0 1 0 0.828 -0.831 a 0.828 0.828 0 0 0 -0.828 0.831" stroke-linecap="round"/>
</g>
		<g transform="matrix(1 0 0 1 -0.069 8.395)" id="Path_19">
<path style="stroke: none; stroke-width: 1; stroke-dasharray: none; stroke-linecap: butt; stroke-dashoffset: 0; stroke-linejoin: miter; stroke-miterlimit: 4; is-custom-font: none; font-file-url: none; fill: rgb(255,255,255); fill-rule: nonzero; opacity: 1;" transform=" translate(-34.5345, -75.779)" d="M 29.806 74.429 c 0.01 1.491 2.122 2.7 4.728 2.7 s 4.718 -1.208 4.729 -2.7 Z" stroke-linecap="round"/>
</g>
		<g transform="matrix(1 0 0 1 0.0145 6.8143)" id="Path_20">
<path style="stroke: none; stroke-width: 1; stroke-dasharray: none; stroke-linecap: butt; stroke-dashoffset: 0; stroke-linejoin: miter; stroke-miterlimit: 4; is-custom-font: none; font-file-url: none; fill: rgb(255,120,120); fill-rule: nonzero; opacity: 1;" transform=" translate(-34.66, -74.2452)" d="M 39.054 74.892 a 4.89 4.89 0 0 0 1.541 -0.57 s -0.771 -0.324 -1.855 -0.653 c -2.786 -1.176 -2.6 0.347 -4.079 0.343 c -0.743 0.024 -1.484 -0.787 -2.18 -0.689 a 13.557 13.557 0 0 0 -1.9 0.35 a 9.359 9.359 0 0 0 -1.856 0.649 a 5.756 5.756 0 0 0 1.683 0.652 a 19.194 19.194 0 0 1 3.025 0.148 a 4.792 4.792 0 0 0 2.107 0.053 a 14.331 14.331 0 0 1 3.515 -0.283" stroke-linecap="round"/>
</g>
		<g transform="matrix(1 0 0 1 -0.0065 9.201)" id="Path_21">
<path style="stroke: none; stroke-width: 1; stroke-dasharray: none; stroke-linecap: butt; stroke-dashoffset: 0; stroke-linejoin: miter; stroke-miterlimit: 4; is-custom-font: none; font-file-url: none; fill: rgb(255,120,120); fill-rule: nonzero; opacity: 1;" transform=" translate(-34.64, -76.591)" d="M 39.664 74.278 a 7.243 7.243 0 0 1 -5.421 2.144 a 6.938 6.938 0 0 1 -4.6 -2.144 H 28.7 c 0.032 0.076 0.056 0.148 0.093 0.226 a 9.7 9.7 0 0 0 0.8 1.4 c 0.175 0.233 0.352 0.475 0.536 0.718 a 7.236 7.236 0 0 0 0.676 0.672 l 0.361 0.336 l 0.426 0.283 a 3.513 3.513 0 0 0 0.937 0.519 a 7.822 7.822 0 0 0 1.084 0.346 l 0.465 0.062 l 0.234 0.03 l 0.115 0.018 l 0.059 0.006 l 0.156 0.01 l 1.1 -0.138 a 7.889 7.889 0 0 0 1.031 -0.343 a 3.688 3.688 0 0 0 0.914 -0.512 l 0.426 -0.281 l 0.362 -0.338 a 7.208 7.208 0 0 0 0.674 -0.671 c 0.185 -0.243 0.363 -0.485 0.536 -0.718 a 9.448 9.448 0 0 0 0.8 -1.4 c 0.038 -0.073 0.061 -0.144 0.095 -0.22 Z" stroke-linecap="round"/>
</g>
		<g transform="matrix(1 0 0 1 2.0961 9.1967)" id="Path_22">
<path style="stroke: none; stroke-width: 1; stroke-dasharray: none; stroke-linecap: butt; stroke-dashoffset: 0; stroke-linejoin: miter; stroke-miterlimit: 4; is-custom-font: none; font-file-url: none; fill: rgb(255,255,255); fill-rule: nonzero; opacity: 1;" transform=" translate(-36.5297, -76.5467)" d="M 34.364 77.8 c 3.873 -0.259 4.59 -2.51 4.59 -2.51 a 5.578 5.578 0 0 1 -4.59 1.876 a 0.3 0.3 0 0 0 -0.256 0.337 s 0.059 0.313 0.256 0.3" stroke-linecap="round"/>
</g>
		<g transform="matrix(1 0 0 1 6.9984 -30.4557)" id="Path_23">
<path style="stroke: none; stroke-width: 1; stroke-dasharray: none; stroke-linecap: butt; stroke-dashoffset: 0; stroke-linejoin: miter; stroke-miterlimit: 4; is-custom-font: none; font-file-url: none; fill: rgb(26,26,26); fill-rule: nonzero; opacity: 1;" transform=" translate(-42.0149, -39.2354)" d="M 64.7 50.858 s 1.183 -30.277 -22.392 -34.576 c 0 0 -16.717 -2.669 -22.988 7.7 l 6.271 15.875 s -0.112 5.672 26.089 11.262 c 0 0 5.364 1.37 5.7 11.378 A 18.72 18.72 0 0 1 64.7 50.858" stroke-linecap="round"/>
</g>
		<g transform="matrix(1 0 0 1 0.4875 1.1091)" id="Path_24">
<path style="stroke: none; stroke-width: 1; stroke-dasharray: none; stroke-linecap: butt; stroke-dashoffset: 0; stroke-linejoin: miter; stroke-miterlimit: 4; is-custom-font: none; font-file-url: none; fill: rgb(255,187,187); fill-rule: nonzero; opacity: 1;" transform=" translate(-35.012, -68.7681)" d="M 31.8 67.837 s 0.035 -0.006 0.1 -0.022 s 0.163 -0.049 0.273 -0.067 c 0.227 -0.05 0.528 -0.106 0.857 -0.162 s 0.675 -0.093 1.018 -0.11 s 0.683 -0.03 1.012 -0.028 s 0.652 0.034 0.974 0.064 c 0.164 0.027 0.324 0.035 0.485 0.056 s 0.325 0.05 0.481 0.065 s 0.318 0.058 0.46 0.076 a 3.527 3.527 0 0 1 0.387 0.052 c 0.11 0.01 0.216 0.043 0.282 0.053 s 0.1 0.022 0.1 0.022 s -0.008 0.034 -0.027 0.1 a 1.939 1.939 0 0 1 -0.088 0.273 a 2.525 2.525 0 0 1 -0.519 0.833 a 2.325 2.325 0 0 1 -0.481 0.421 a 2.77 2.77 0 0 1 -0.623 0.344 a 2.935 2.935 0 0 1 -0.729 0.216 a 3.075 3.075 0 0 1 -0.774 0.062 a 3.795 3.795 0 0 1 -1.457 -0.333 a 3.446 3.446 0 0 1 -1.06 -0.747 a 2.977 2.977 0 0 1 -0.547 -0.8 a 1.679 1.679 0 0 1 -0.1 -0.271 c -0.019 -0.068 -0.029 -0.1 -0.029 -0.1" stroke-linecap="round"/>
</g>
		<g transform="matrix(1 0 0 1 -0.1225 41.833)" id="Path_25">
<path style="stroke: none; stroke-width: 1; stroke-dasharray: none; stroke-linecap: butt; stroke-dashoffset: 0; stroke-linejoin: miter; stroke-miterlimit: 4; is-custom-font: none; font-file-url: none; fill: rgb(242,37,37); fill-rule: nonzero; opacity: 1;" transform=" translate(-35.38, -108.347)" d="M 58.365 120.233 c -0.059 -6.251 0.343 -12.528 5.378 -16.259 L 44.927 96.627 l -9.749 8.98 l -8.7 -9.146 l -19.461 7.6 c 3.687 2.089 4.761 7.425 5.052 11.3 a 44.711 44.711 0 0 1 0.116 4.872 Z" stroke-linecap="round"/>
</g>
		<g transform="matrix(1 0 0 1 -16.6344 -27.525)" id="Path_26">
<path style="stroke: none; stroke-width: 1; stroke-dasharray: none; stroke-linecap: butt; stroke-dashoffset: 0; stroke-linejoin: miter; stroke-miterlimit: 4; is-custom-font: none; font-file-url: none; fill: rgb(26,26,26); fill-rule: nonzero; opacity: 1;" transform=" translate(-18.824, -41.946)" d="M 29.508 38.662 s -14.6 3.095 -14.542 23.682 c 0 0 -0.623 -6.618 -4.513 -5.723 c 0 0 -10.9 -27.363 14.625 -35.073 Z" stroke-linecap="round"/>
</g>
		<g transform="matrix(1 0 0 1 -10.5175 -31.52)" id="Path_27">
<path style="stroke: none; stroke-width: 1; stroke-dasharray: none; stroke-linecap: butt; stroke-dashoffset: 0; stroke-linejoin: miter; stroke-miterlimit: 4; is-custom-font: none; font-file-url: none; fill: rgb(255,212,212); fill-rule: nonzero; opacity: 1;" transform=" translate(-24.361, -37.469)" d="M 22.815 33.769 l 1.292 7.4 l 1.8 -0.951 Z" stroke-linecap="round"/>
</g>
</g>
</g>
</svg>