<svg xmlns="http://www.w3.org/2000/svg" xmlns:xlink="http://www.w3.org/1999/xlink" version="1.1" width="1000" height="1000" viewBox="0 0 1000 1000" xml:space="preserve">
<desc>Created with Fabric.js 3.5.0</desc>
<defs>
</defs>
<rect x="0" y="0" width="100%" height="100%" fill="rgba(255,255,255,0)"/>
<g transform="matrix(7.9415 0 0 7.9415 500.0016 500.0021)" id="528731">
<g style="" vector-effect="non-scaling-stroke">
		<g transform="matrix(1 0 0 1 -0.0125 31.503)" id="Rectangle_5">
<rect style="stroke: none; stroke-width: 1; stroke-dasharray: none; stroke-linecap: butt; stroke-dashoffset: 0; stroke-linejoin: miter; stroke-miterlimit: 4; is-custom-font: none; font-file-url: none; fill: rgb(242,37,37); fill-rule: nonzero; opacity: 1;" x="-10.757" y="-3.961" rx="0" ry="0" width="21.514" height="7.922"/>
</g>
		<g transform="matrix(1 0 0 1 -0.0005 25.3675)" id="Path_28">
<path style="stroke: none; stroke-width: 1; stroke-dasharray: none; stroke-linecap: butt; stroke-dashoffset: 0; stroke-linejoin: miter; stroke-miterlimit: 4; is-custom-font: none; font-file-url: none; fill: rgb(255,212,212); fill-rule: nonzero; opacity: 1;" transform=" translate(-135.358, -85.8075)" d="M 143.986 78.688 H 126.508 s 0.443 11.035 -1.7 14.239 h 21.1 c -2.14 -3.2 -1.92 -14.239 -1.92 -14.239" stroke-linecap="round"/>
</g>
		<g transform="matrix(1 0 0 1 -0.0075 23.6355)" id="Path_29">
<path style="stroke: none; stroke-width: 1; stroke-dasharray: none; stroke-linecap: butt; stroke-dashoffset: 0; stroke-linejoin: miter; stroke-miterlimit: 4; is-custom-font: none; font-file-url: none; fill: rgb(246,186,186); fill-rule: nonzero; opacity: 1;" transform=" translate(-135.413, -84.0755)" d="M 126.35 87.024 a 18.6 18.6 0 0 0 9.207 2.444 a 21.9 21.9 0 0 0 8.919 -2 a 71.093 71.093 0 0 1 -0.427 -8.785 H 126.571 a 70.046 70.046 0 0 1 -0.221 8.336" stroke-linecap="round"/>
</g>
		<g transform="matrix(1 0 0 1 -0.0003 44.141)" id="Path_30">
<path style="stroke: none; stroke-width: 1; stroke-dasharray: none; stroke-linecap: butt; stroke-dashoffset: 0; stroke-linejoin: miter; stroke-miterlimit: 4; is-custom-font: none; font-file-url: none; fill: rgb(255,212,212); fill-rule: nonzero; opacity: 1;" transform=" translate(-134.0352, -105.124)" d="M 167.8 101.118 L 142.432 92.03 H 125.61 l -25.371 9.088 s -8.884 2.923 -7.846 17.1 H 175.65 c 1.213 -15.049 -7.846 -17.1 -7.846 -17.1" stroke-linecap="round"/>
</g>
		<g transform="matrix(1 0 0 1 -0.0008 44.9135)" id="Path_31">
<path style="stroke: none; stroke-width: 1; stroke-dasharray: none; stroke-linecap: butt; stroke-dashoffset: 0; stroke-linejoin: miter; stroke-miterlimit: 4; is-custom-font: none; font-file-url: none; fill: rgb(242,37,37); fill-rule: nonzero; opacity: 1;" transform=" translate(-134.0347, -105.9615)" d="M 167.8 101.184 l -20.732 -7.427 l -13.037 9.089 L 121.3 93.639 l -21.062 7.545 s -8.884 2.923 -7.846 17.1 H 175.65 c 1.213 -15.049 -7.846 -17.1 -7.846 -17.1" stroke-linecap="round"/>
</g>
		<g transform="matrix(1 0 0 1 22.5578 -2.8027)" id="Path_32">
<path style="stroke: none; stroke-width: 1; stroke-dasharray: none; stroke-linecap: butt; stroke-dashoffset: 0; stroke-linejoin: miter; stroke-miterlimit: 4; is-custom-font: none; font-file-url: none; fill: rgb(255,212,212); fill-rule: nonzero; opacity: 1;" transform=" translate(-159.1683, -56.4563)" d="M 155.753 55.814 c -0.6 3.727 0.443 7.039 2.333 7.393 s 3.906 -2.37 4.5 -6.1 s -0.445 -7.037 -2.337 -7.4 s -3.9 2.373 -4.5 6.1" stroke-linecap="round"/>
</g>
		<g transform="matrix(1 0 0 1 23.2199 -4.1994)" id="Path_33">
<path style="stroke: none; stroke-width: 1; stroke-dasharray: none; stroke-linecap: butt; stroke-dashoffset: 0; stroke-linejoin: miter; stroke-miterlimit: 4; is-custom-font: none; font-file-url: none; fill: rgb(255,187,187); fill-rule: nonzero; opacity: 1;" transform=" translate(-159.9334, -55.1217)" d="M 158.128 54.87 s 0.028 -0.209 0.1 -0.55 a 6.7 6.7 0 0 1 0.455 -1.34 c 0.236 -0.5 0.619 -1.071 1.1 -1.1 a 1.008 1.008 0 0 1 0.365 0.052 a 1.811 1.811 0 0 1 0.184 0.095 a 1.566 1.566 0 0 1 0.134 0.111 a 1.932 1.932 0 0 1 0.455 0.813 a 4.772 4.772 0 0 1 0.223 1.059 a 5.175 5.175 0 0 1 0.011 1.067 c -0.058 0.373 -0.076 0.758 -0.143 1.082 s -0.124 0.645 -0.18 0.933 c -0.077 0.291 -0.135 0.56 -0.188 0.8 s -0.125 0.443 -0.169 0.615 c -0.1 0.342 -0.145 0.541 -0.145 0.541 s 0.1 -0.17 0.254 -0.481 c 0.073 -0.16 0.18 -0.343 0.272 -0.573 s 0.2 -0.487 0.312 -0.772 s 0.2 -0.622 0.3 -0.971 s 0.153 -0.7 0.227 -1.082 a 5 5 0 0 0 0.045 -1.277 a 5.642 5.642 0 0 0 -0.241 -1.262 a 2.63 2.63 0 0 0 -0.659 -1.093 a 1.438 1.438 0 0 0 -0.269 -0.194 a 2.3 2.3 0 0 0 -0.259 -0.1 a 1.315 1.315 0 0 0 -1.5 0.629 a 3.479 3.479 0 0 0 -0.448 0.935 a 5.954 5.954 0 0 0 -0.254 1.5 a 3.676 3.676 0 0 0 0.015 0.566" stroke-linecap="round"/>
</g>
		<g transform="matrix(1 0 0 1 22.0619 -2.0696)" id="Path_34">
<path style="stroke: none; stroke-width: 1; stroke-dasharray: none; stroke-linecap: butt; stroke-dashoffset: 0; stroke-linejoin: miter; stroke-miterlimit: 4; is-custom-font: none; font-file-url: none; fill: rgb(255,187,187); fill-rule: nonzero; opacity: 1;" transform=" translate(-158.7504, -57.3864)" d="M 158.1 55.005 s -0.175 -0.4 1.069 -0.492 c 0 0 1.39 0.257 0.574 2.112 a 6.011 6.011 0 0 0 -0.417 1.249 c -0.124 0.623 0.1 1.467 -0.235 2.018 c -0.431 0.712 -1.525 0.307 -1.59 -0.507 a 4.7 4.7 0 0 1 0.885 -2.14 a 1.664 1.664 0 0 0 -0.285 -2.24" stroke-linecap="round"/>
</g>
		<g transform="matrix(1 0 0 1 21.0713 1.1175)" id="Path_35">
<path style="stroke: none; stroke-width: 1; stroke-dasharray: none; stroke-linecap: butt; stroke-dashoffset: 0; stroke-linejoin: miter; stroke-miterlimit: 4; is-custom-font: none; font-file-url: none; fill: rgb(255,187,187); fill-rule: nonzero; opacity: 1;" transform=" translate(-157.7447, -60.7765)" d="M 157.487 59.508 a 0.526 0.526 0 0 0 -0.1 0.1 a 1.24 1.24 0 0 0 -0.183 0.346 a 1.138 1.138 0 0 0 -0.063 0.265 a 0.975 0.975 0 0 0 -0.023 0.309 c 0.008 0.1 0.01 0.22 0.029 0.332 a 2.563 2.563 0 0 0 0.1 0.311 a 1.415 1.415 0 0 0 0.14 0.283 c 0.056 0.08 0.127 0.146 0.184 0.216 a 0.8 0.8 0 0 0 0.38 0.269 a 1.153 1.153 0 0 0 0.424 0.106 a 2.781 2.781 0 0 0 -0.194 -0.453 a 1.266 1.266 0 0 0 -0.1 -0.177 c -0.03 -0.065 -0.053 -0.141 -0.089 -0.205 a 1.573 1.573 0 0 0 -0.1 -0.195 a 0.942 0.942 0 0 1 -0.08 -0.208 a 2.153 2.153 0 0 1 -0.152 -0.406 a 1.752 1.752 0 0 1 -0.054 -0.205 c -0.01 -0.07 -0.04 -0.138 -0.046 -0.2 c -0.049 -0.258 -0.074 -0.487 -0.074 -0.485" stroke-linecap="round"/>
</g>
		<g transform="matrix(1 0 0 1 -22.2814 -2.8027)" id="Path_36">
<path style="stroke: none; stroke-width: 1; stroke-dasharray: none; stroke-linecap: butt; stroke-dashoffset: 0; stroke-linejoin: miter; stroke-miterlimit: 4; is-custom-font: none; font-file-url: none; fill: rgb(255,212,212); fill-rule: nonzero; opacity: 1;" transform=" translate(-112.4271, -56.4563)" d="M 115.846 55.814 c 0.6 3.727 -0.444 7.039 -2.332 7.393 s -3.906 -2.37 -4.506 -6.1 s 0.445 -7.037 2.337 -7.4 s 3.9 2.373 4.5 6.1" stroke-linecap="round"/>
</g>
		<g transform="matrix(1 0 0 1 -22.9417 -4.1994)" id="Path_37">
<path style="stroke: none; stroke-width: 1; stroke-dasharray: none; stroke-linecap: butt; stroke-dashoffset: 0; stroke-linejoin: miter; stroke-miterlimit: 4; is-custom-font: none; font-file-url: none; fill: rgb(255,187,187); fill-rule: nonzero; opacity: 1;" transform=" translate(-111.8129, -55.1216)" d="M 113.621 54.87 s -0.029 -0.209 -0.1 -0.55 a 6.773 6.773 0 0 0 -0.456 -1.34 c -0.237 -0.5 -0.619 -1.071 -1.1 -1.1 a 1.006 1.006 0 0 0 -0.364 0.052 a 1.631 1.631 0 0 0 -0.184 0.095 a 1.569 1.569 0 0 0 -0.134 0.111 a 1.924 1.924 0 0 0 -0.456 0.813 a 4.718 4.718 0 0 0 -0.223 1.059 a 5.175 5.175 0 0 0 -0.012 1.067 c 0.058 0.373 0.075 0.758 0.143 1.082 s 0.124 0.645 0.179 0.933 c 0.077 0.291 0.136 0.56 0.189 0.8 s 0.126 0.443 0.168 0.615 c 0.1 0.342 0.146 0.541 0.146 0.541 s -0.1 -0.17 -0.254 -0.481 c -0.072 -0.16 -0.179 -0.343 -0.272 -0.573 s -0.2 -0.487 -0.312 -0.772 s -0.2 -0.622 -0.3 -0.971 s -0.153 -0.7 -0.226 -1.082 a 4.919 4.919 0 0 1 -0.047 -1.277 a 5.641 5.641 0 0 1 0.241 -1.262 a 2.62 2.62 0 0 1 0.659 -1.093 a 1.415 1.415 0 0 1 0.27 -0.194 a 2.209 2.209 0 0 1 0.258 -0.1 a 1.314 1.314 0 0 1 1.5 0.629 a 3.418 3.418 0 0 1 0.447 0.935 a 5.836 5.836 0 0 1 0.255 1.5 a 3.621 3.621 0 0 1 -0.014 0.566" stroke-linecap="round"/>
</g>
		<g transform="matrix(1 0 0 1 -21.7857 -2.0696)" id="Path_38">
<path style="stroke: none; stroke-width: 1; stroke-dasharray: none; stroke-linecap: butt; stroke-dashoffset: 0; stroke-linejoin: miter; stroke-miterlimit: 4; is-custom-font: none; font-file-url: none; fill: rgb(255,187,187); fill-rule: nonzero; opacity: 1;" transform=" translate(-113.0429, -57.3864)" d="M 113.694 55.005 s 0.175 -0.4 -1.07 -0.492 c 0 0 -1.39 0.257 -0.573 2.112 a 6.064 6.064 0 0 1 0.416 1.249 c 0.124 0.623 -0.1 1.467 0.235 2.018 c 0.432 0.712 1.526 0.307 1.59 -0.507 a 4.675 4.675 0 0 0 -0.884 -2.14 a 1.663 1.663 0 0 1 0.286 -2.24" stroke-linecap="round"/>
</g>
		<g transform="matrix(1 0 0 1 -20.7909 1.1175)" id="Path_39">
<path style="stroke: none; stroke-width: 1; stroke-dasharray: none; stroke-linecap: butt; stroke-dashoffset: 0; stroke-linejoin: miter; stroke-miterlimit: 4; is-custom-font: none; font-file-url: none; fill: rgb(255,187,187); fill-rule: nonzero; opacity: 1;" transform=" translate(-114.1056, -60.7765)" d="M 114.361 59.508 a 0.463 0.463 0 0 1 0.1 0.1 a 1.34 1.34 0 0 1 0.248 0.611 a 0.975 0.975 0 0 1 0.024 0.309 c -0.01 0.1 -0.011 0.22 -0.03 0.332 a 2.56 2.56 0 0 1 -0.1 0.311 a 1.468 1.468 0 0 1 -0.14 0.283 c -0.056 0.08 -0.126 0.146 -0.185 0.216 a 0.794 0.794 0 0 1 -0.379 0.269 a 1.153 1.153 0 0 1 -0.424 0.106 a 2.824 2.824 0 0 1 0.193 -0.453 a 1.385 1.385 0 0 1 0.106 -0.177 c 0.03 -0.065 0.053 -0.141 0.088 -0.205 a 1.448 1.448 0 0 1 0.1 -0.195 a 0.945 0.945 0 0 0 0.081 -0.208 a 2.153 2.153 0 0 0 0.151 -0.406 a 1.766 1.766 0 0 0 0.055 -0.205 c 0.01 -0.07 0.04 -0.138 0.046 -0.2 c 0.049 -0.258 0.073 -0.487 0.073 -0.485" stroke-linecap="round"/>
</g>
		<g transform="matrix(1 0 0 1 0.1382 -9.8631)" id="Path_40">
<path style="stroke: none; stroke-width: 1; stroke-dasharray: none; stroke-linecap: butt; stroke-dashoffset: 0; stroke-linejoin: miter; stroke-miterlimit: 4; is-custom-font: none; font-file-url: none; fill: rgb(255,212,212); fill-rule: nonzero; opacity: 1;" transform=" translate(-135.0207, -47.9509)" d="M 135.251 14.172 v -0.006 l -0.3 0 l -0.3 0 v 0 C 119.637 14.3 111.2 18.581 113.5 45.958 l 2.584 21.808 a 9.076 9.076 0 0 0 4.824 6.359 l 8.159 6.048 s 3.877 1.721 5.887 1.551 c 2.007 0.17 5.883 -1.553 5.883 -1.553 L 149 74.123 a 9.073 9.073 0 0 0 4.823 -6.359 l 2.723 -21.3 c 2.3 -27.377 -6.277 -32.159 -21.295 -32.289" stroke-linecap="round"/>
</g>
		<g transform="matrix(1 0 0 1 0.1435 10.5323)" id="Path_41">
<path style="stroke: none; stroke-width: 1; stroke-dasharray: none; stroke-linecap: butt; stroke-dashoffset: 0; stroke-linejoin: miter; stroke-miterlimit: 4; is-custom-font: none; font-file-url: none; fill: rgb(26,26,26); fill-rule: nonzero; opacity: 1;" transform=" translate(-135.082, -70.0103)" d="M 152.964 56.033 c -0.532 2.322 -0.9 6.038 -2.41 8.026 a 5.682 5.682 0 0 1 -4.381 2.248 a 15.75 15.75 0 0 1 -3.6 -0.247 a 18.588 18.588 0 0 0 -2.738 -0.642 a 4.978 4.978 0 0 0 -2.693 0.836 a 3.977 3.977 0 0 1 -3.375 0.17 a 15.416 15.416 0 0 0 -5.241 -1.141 c -2.067 0.072 -4.445 0.624 -6.471 0 c -2.17 -0.667 -3.3 -2.553 -4.151 -4.54 c -0.459 -1.072 -0.783 -3.6 -1.109 -4.708 c -0.406 -1.38 -1.04 -0.431 -2.3 -0.447 l 1.641 15.4 a 9.074 9.074 0 0 0 4.823 6.359 l 8.159 6.048 s 3.877 1.722 5.888 1.551 c 2.006 0.171 5.882 -1.551 5.882 -1.551 l 8.158 -6.05 a 9.073 9.073 0 0 0 4.823 -6.359 l 1.8 -15.661 c -1.42 -0.034 -2.347 -0.9 -2.72 0.714" stroke-linecap="round"/>
</g>
		<g transform="matrix(1 0 0 1 -9.2244 -10.076)" id="Path_42">
<path style="stroke: none; stroke-width: 1; stroke-dasharray: none; stroke-linecap: butt; stroke-dashoffset: 0; stroke-linejoin: miter; stroke-miterlimit: 4; is-custom-font: none; font-file-url: none; fill: rgb(35,18,8); fill-rule: nonzero; opacity: 1;" transform=" translate(-126.115, -49.053)" d="M 124.347 49.064 c 0.01 1.421 0.808 2.572 1.783 2.566 s 1.763 -1.165 1.753 -2.588 s -0.806 -2.573 -1.782 -2.566 s -1.761 1.165 -1.754 2.588" stroke-linecap="round"/>
</g>
		<g transform="matrix(1 0 0 1 -10.6905 -10.888)" id="Path_43">
<path style="stroke: none; stroke-width: 1; stroke-dasharray: none; stroke-linecap: butt; stroke-dashoffset: 0; stroke-linejoin: miter; stroke-miterlimit: 4; is-custom-font: none; font-file-url: none; fill: rgb(255,255,255); fill-rule: nonzero; opacity: 1;" transform=" translate(-124.629, -48.283)" d="M 125.394 48.284 a 0.765 0.765 0 1 1 -0.766 -0.766 a 0.765 0.765 0 0 1 0.766 0.766" stroke-linecap="round"/>
</g>
		<g transform="matrix(1 0 0 1 9.503 -10.076)" id="Path_44">
<path style="stroke: none; stroke-width: 1; stroke-dasharray: none; stroke-linecap: butt; stroke-dashoffset: 0; stroke-linejoin: miter; stroke-miterlimit: 4; is-custom-font: none; font-file-url: none; fill: rgb(35,18,8); fill-rule: nonzero; opacity: 1;" transform=" translate(-145.6375, -49.053)" d="M 147.406 49.064 c -0.009 1.421 -0.808 2.572 -1.782 2.566 s -1.763 -1.165 -1.755 -2.588 s 0.808 -2.573 1.784 -2.566 s 1.76 1.165 1.753 2.588" stroke-linecap="round"/>
</g>
		<g transform="matrix(1 0 0 1 10.9715 -10.888)" id="Path_45">
<path style="stroke: none; stroke-width: 1; stroke-dasharray: none; stroke-linecap: butt; stroke-dashoffset: 0; stroke-linejoin: miter; stroke-miterlimit: 4; is-custom-font: none; font-file-url: none; fill: rgb(255,255,255); fill-rule: nonzero; opacity: 1;" transform=" translate(-147.21, -48.283)" d="M 146.445 48.284 a 0.765 0.765 0 1 0 0.764 -0.766 a 0.764 0.764 0 0 0 -0.764 0.766" stroke-linecap="round"/>
</g>
		<g transform="matrix(1 0 0 1 -0.8569 1.663)" id="Path_46">
<path style="stroke: none; stroke-width: 1; stroke-dasharray: none; stroke-linecap: butt; stroke-dashoffset: 0; stroke-linejoin: miter; stroke-miterlimit: 4; is-custom-font: none; font-file-url: none; fill: rgb(255,187,187); fill-rule: nonzero; opacity: 1;" transform=" translate(-134.7597, -61.248)" d="M 138.356 63.372 a 5.022 5.022 0 0 1 -1.418 0.937 a 6.056 6.056 0 0 1 -2.609 0.5 a 5.642 5.642 0 0 1 -0.918 -0.13 a 4.9 4.9 0 0 1 -0.9 -0.273 a 7.3 7.3 0 0 1 -0.846 -0.409 l -0.351 -0.178 l -0.079 -0.592 a 7.063 7.063 0 0 1 -0.065 -0.74 c -0.015 -0.242 0 -0.481 0 -0.719 a 8.076 8.076 0 0 1 0.2 -1.421 a 6.33 6.33 0 0 1 0.479 -1.378 a 4.991 4.991 0 0 1 0.832 -1.285 a 6.718 6.718 0 0 1 0.4 1.452 a 10.41 10.41 0 0 1 0.171 1.377 c 0.019 0.451 0.028 0.9 0.011 1.344 l -0.041 0.664 c -0.017 0.219 -0.04 0.449 -0.066 0.648 l -0.43 -0.771 c 0.192 0.114 0.365 0.274 0.565 0.377 a 4.968 4.968 0 0 0 0.608 0.311 a 6.455 6.455 0 0 0 0.653 0.245 c 0.228 0.048 0.459 0.128 0.7 0.158 a 5.033 5.033 0 0 0 0.736 0.078 a 6.6 6.6 0 0 0 0.768 0.011 a 9.635 9.635 0 0 0 1.6 -0.205" stroke-linecap="round"/>
</g>
		<g transform="matrix(1 0 0 1 -10.6083 -15.3881)" id="Path_47">
<path style="stroke: none; stroke-width: 1; stroke-dasharray: none; stroke-linecap: butt; stroke-dashoffset: 0; stroke-linejoin: miter; stroke-miterlimit: 4; is-custom-font: none; font-file-url: none; fill: rgb(26,26,26); fill-rule: nonzero; opacity: 1;" transform=" translate(-124.5302, -43.5529)" d="M 129.618 43.625 a 1.239 1.239 0 0 1 -1.4 0.948 a 13.62 13.62 0 0 0 -7.147 0.6 a 1.279 1.279 0 0 1 -1.525 -0.7 a 1.132 1.132 0 0 1 0.621 -1.594 a 16.066 16.066 0 0 1 8.415 -0.745 a 1.256 1.256 0 0 1 1.037 1.495" stroke-linecap="round"/>
</g>
		<g transform="matrix(1 0 0 1 10.2089 -15.388)" id="Path_48">
<path style="stroke: none; stroke-width: 1; stroke-dasharray: none; stroke-linecap: butt; stroke-dashoffset: 0; stroke-linejoin: miter; stroke-miterlimit: 4; is-custom-font: none; font-file-url: none; fill: rgb(26,26,26); fill-rule: nonzero; opacity: 1;" transform=" translate(-146.2304, -43.5529)" d="M 141.143 43.625 a 1.24 1.24 0 0 0 1.4 0.948 a 13.618 13.618 0 0 1 7.146 0.6 a 1.28 1.28 0 0 0 1.526 -0.7 a 1.132 1.132 0 0 0 -0.62 -1.594 a 16.072 16.072 0 0 0 -8.416 -0.745 a 1.256 1.256 0 0 0 -1.038 1.495" stroke-linecap="round"/>
</g>
		<g transform="matrix(1 0 0 1 -0.1775 13.4697)" id="Path_49">
<path style="stroke: rgb(255,212,212); stroke-width: 1; stroke-dasharray: none; stroke-linecap: round; stroke-dashoffset: 0; stroke-linejoin: round; stroke-miterlimit: 4; is-custom-font: none; font-file-url: none; fill: none; fill-rule: nonzero; opacity: 1;" transform=" translate(-135.576, -73.7037)" d="M 136.633 73.635 a 4.727 4.727 0 0 1 -2.114 0.034" stroke-linecap="round"/>
</g>
		<g transform="matrix(1 0 0 1 0.352 10.6719)" id="Path_50">
<path style="stroke: none; stroke-width: 1; stroke-dasharray: none; stroke-linecap: butt; stroke-dashoffset: 0; stroke-linejoin: miter; stroke-miterlimit: 4; is-custom-font: none; font-file-url: none; fill: rgb(255,255,255); fill-rule: nonzero; opacity: 1;" transform=" translate(-135.9485, -70.7199)" d="M 130.655 69.076 l 1.228 2.415 a 7.151 7.151 0 0 0 9.359 -2.293 a 96.08 96.08 0 0 1 -10.587 -0.122" stroke-linecap="round"/>
</g>
		<g transform="matrix(1 0 0 1 0.6918 -30.5645)" id="Path_51">
<path style="stroke: none; stroke-width: 1; stroke-dasharray: none; stroke-linecap: butt; stroke-dashoffset: 0; stroke-linejoin: miter; stroke-miterlimit: 4; is-custom-font: none; font-file-url: none; fill: rgb(26,26,26); fill-rule: nonzero; opacity: 1;" transform=" translate(-135.4463, -26.6725)" d="M 124.207 19.886 s 5.607 6.786 18.284 8.575 c 0 0 12.879 4.449 12.707 11.712 l -2.272 13.171 l 2.574 -0.267 s 0.07 -5.309 2.9 -5.385 c 0 0 2.546 -10.657 2.5 -12.481 s -3.589 -19.888 -3.589 -19.888 L 143.5 5.474 S 128.571 3.284 121.638 0 c 0 0 1.582 4.2 3.893 5.474 c 0 0 -8.658 0.913 -9.468 0.729 s 1.2 4.562 1.2 4.562 l -7.271 11.129 l 1.4 25.8 s 2.248 0.223 2.93 5.651 h 2.111 l -0.369 -16.554 s 2.97 -10.252 8.144 -16.9" stroke-linecap="round"/>
</g>
		<g transform="matrix(1 0 0 1 -16.5325 -35.1445)" id="Path_52">
<path style="stroke: none; stroke-width: 1; stroke-dasharray: none; stroke-linecap: butt; stroke-dashoffset: 0; stroke-linejoin: miter; stroke-miterlimit: 4; is-custom-font: none; font-file-url: none; fill: rgb(38,13,0); fill-rule: nonzero; opacity: 1;" transform=" translate(-118.222, -22.5545)" d="M 123.633 19.748 a 34.245 34.245 0 0 1 -6.453 -8.4 l -7.193 11.009 l 0 0.065 c 2.374 3.8 4.748 7.616 7.247 11.339 a 52.691 52.691 0 0 1 6.969 -13.412 a 16.444 16.444 0 0 0 2.254 2.091 c -0.972 -0.87 -1.916 -1.764 -2.828 -2.693" stroke-linecap="round"/>
</g>
		<g transform="matrix(1 0 0 1 -6.0475 34.6495)" id="Path_53">
<path style="stroke: none; stroke-width: 1; stroke-dasharray: none; stroke-linecap: butt; stroke-dashoffset: 0; stroke-linejoin: miter; stroke-miterlimit: 4; is-custom-font: none; font-file-url: none; fill: rgb(242,37,37); fill-rule: nonzero; opacity: 1;" transform=" translate(-129.246, -95.4835)" d="M 135.285 102.591 l -1.709 -8.737 l -9.051 -5.478 l -1.318 5.509 Z" stroke-linecap="round"/>
</g>
		<g transform="matrix(1 0 0 1 6.0335 34.6495)" id="Path_54">
<path style="stroke: none; stroke-width: 1; stroke-dasharray: none; stroke-linecap: butt; stroke-dashoffset: 0; stroke-linejoin: miter; stroke-miterlimit: 4; is-custom-font: none; font-file-url: none; fill: rgb(242,37,37); fill-rule: nonzero; opacity: 1;" transform=" translate(-141.839, -95.4835)" d="M 135.8 102.591 l 1.709 -8.737 l 9.05 -5.478 l 1.319 5.509 Z" stroke-linecap="round"/>
</g>
		<g transform="matrix(1 0 0 1 0.0004 37.9785)" id="Path_55">
<path style="stroke: none; stroke-width: 1; stroke-dasharray: none; stroke-linecap: butt; stroke-dashoffset: 0; stroke-linejoin: miter; stroke-miterlimit: 4; is-custom-font: none; font-file-url: none; fill: rgb(39,39,39); fill-rule: nonzero; opacity: 1;" transform=" translate(-135.5669, -99.0945)" d="M 139.887 95.318 h -8.64 a 2.64 2.64 0 0 0 -1.106 3.2 l 2.749 4.353 h 5.353 l 2.75 -4.353 a 2.641 2.641 0 0 0 -1.106 -3.2" stroke-linecap="round"/>
</g>
		<g transform="matrix(1 0 0 1 0.0154 37.98)" id="Path_56" clip-path="url(#CLIPPATH_1)">
<clipPath id="CLIPPATH_1">
	<rect transform="matrix(1 0 0 1 -36.1104 -91.4395)" id="Rectangle_7" x="-5.6315" y="-3.7775" rx="0" ry="0" width="11.263" height="7.555"/>
</clipPath>
<path style="stroke: none; stroke-width: 1; stroke-dasharray: none; stroke-linecap: butt; stroke-dashoffset: 0; stroke-linejoin: miter; stroke-miterlimit: 4; is-custom-font: none; font-file-url: none; fill: rgb(76,66,145); fill-rule: nonzero; opacity: 1;" transform=" translate(-135.5819, -99.096)" d="M 140.476 95.821 a 4.757 4.757 0 0 1 -0.174 2.569 a 5.027 5.027 0 0 1 -3.837 3.548 a 3.33 3.33 0 0 1 -3.951 -2.205 c -0.457 -1.533 -0.71 -3.271 0.269 -4.414 h -1.537 a 2.638 2.638 0 0 0 -1.105 3.2 l 2.749 4.354 h 5.353 l 2.75 -4.354 a 2.432 2.432 0 0 0 -0.517 -2.7" stroke-linecap="round"/>
</g>
		<g transform="matrix(1 0 0 1 -0.0035 49.4965)" id="Path_57">
<path style="stroke: none; stroke-width: 1; stroke-dasharray: none; stroke-linecap: butt; stroke-dashoffset: 0; stroke-linejoin: miter; stroke-miterlimit: 4; is-custom-font: none; font-file-url: none; fill: rgb(39,39,39); fill-rule: nonzero; opacity: 1;" transform=" translate(-135.563, -110.9335)" d="M 132.881 103.194 l -2.955 15.479 H 141.2 l -2.969 -15.479 Z" stroke-linecap="round"/>
</g>
		<g transform="matrix(1 0 0 1 -9.0875 34.1995)" id="Path_58">
<path style="stroke: none; stroke-width: 1; stroke-dasharray: none; stroke-linecap: butt; stroke-dashoffset: 0; stroke-linejoin: miter; stroke-miterlimit: 4; is-custom-font: none; font-file-url: none; fill: rgb(255,101,101); fill-rule: nonzero; opacity: 1;" transform=" translate(-126.02, -95.0335)" d="M 133.39 93.854 l -4.278 7.838 L 118.65 94.585 l 5.69 -6.21 Z" stroke-linecap="round"/>
</g>
		<g transform="matrix(1 0 0 1 9.0715 34.2)" id="Path_59">
<path style="stroke: none; stroke-width: 1; stroke-dasharray: none; stroke-linecap: butt; stroke-dashoffset: 0; stroke-linejoin: miter; stroke-miterlimit: 4; is-custom-font: none; font-file-url: none; fill: rgb(255,101,101); fill-rule: nonzero; opacity: 1;" transform=" translate(-144.949, -95.034)" d="M 137.579 93.854 l 4.279 7.838 l 10.461 -7.106 l -5.69 -6.21 Z" stroke-linecap="round"/>
</g>
</g>
</g>
</svg>